# xmcd
#
# Track frame offsets: 
#        150
#        6307
#        14459
#        15056
#        24503
#        38752
#        52696
#        65442
#        79690
#        91651
#        95503
#        104633
#        123060
#        145062
#        181574
#        182347
#        190218
#        197470
#        219088
#        234366
#        235361
#        249860
#        262471
#        283450
#
# Disc length: 4109 seconds
#
# Revision: 2
# Processed by: cddbd v1.5.2PL0 Copyright (c) Steve Scherf et al.
# Submitted via: ExactAudioCopyFreeDBPlugin 1.0
#
DISCID=2c100b18
DTITLE=スタジオシエスタ - ぽけっとかのん&えあオリジナルサウンドトラック
DYEAR=1900
DGENRE=Soundtrack
TTITLE0=空へ・・・ -鳥の詩-
TTITLE1=集う少女達 -鳥の詩-
TTITLE2=乱戦必死
TTITLE3=夏風
TTITLE4=どろり濃厚行進曲
TTITLE5=探検隊散歩道を行く
TTITLE6=思い出思想曲
TTITLE7=りとる・ふぁいたー
TTITLE8=夏草の音と
TTITLE9=なぞ・なつかげ
TTITLE10=昼夏
TTITLE11=揺らぐ灯火
TTITLE12=かけたこころ
TTITLE13=希望を求めて -鳥の詩- フルバージョン
TTITLE14=勝者
TTITLE15=夏音色
TTITLE16=小さな羽根に安らぎを
TTITLE17=夏の記憶 -鳥の詩-
TTITLE18=黄金色 -銀色-
TTITLE19=げーむ・おーばぁ〜
TTITLE20=夏影-
TTITLE21=回想録-
TTITLE22=双星-
TTITLE23=Natukage-
EXTD=
EXTT0=
EXTT1=
EXTT2=
EXTT3=
EXTT4=
EXTT5=
EXTT6=
EXTT7=
EXTT8=
EXTT9=
EXTT10=
EXTT11=
EXTT12=
EXTT13=
EXTT14=
EXTT15=
EXTT16=
EXTT17=
EXTT18=
EXTT19=
EXTT20=
EXTT21=
EXTT22=
EXTT23=
PLAYORDER=
